<?xml version="1.0" standalone="no"?>
<!DOCTYPE svg PUBLIC "-//W3C//DTD SVG 20010904//EN"
 "http://www.w3.org/TR/2001/REC-SVG-20010904/DTD/svg10.dtd">
<svg version="1.0" xmlns="http://www.w3.org/2000/svg"
 width="360.000000pt" height="360.000000pt" viewBox="0 0 360.000000 360.000000"
 preserveAspectRatio="xMidYMid meet">

<g transform="translate(0.000000,360.000000) scale(0.100000,-0.100000)"
fill="#000000" stroke="none">
<path d="M1110 3160 c-19 -19 -20 -33 -20 -255 l0 -235 -123 0 c-107 0 -126
-2 -140 -18 -16 -17 -17 -108 -17 -1109 0 -1043 1 -1091 18 -1106 17 -16 90
-17 840 -17 l821 0 15 22 c13 19 16 61 16 255 l0 233 124 0 c100 0 128 3 140
16 14 14 16 113 16 942 l0 926 -183 183 -183 183 -652 0 c-639 0 -652 0 -672
-20z m1240 -240 c0 -200 -10 -190 190 -190 l150 0 0 -845 0 -845 -742 2 -743
3 0 1000 c0 550 2 1006 4 1013 2 9 125 12 572 12 l569 0 0 -150z m191 -7 l63
-68 -58 -3 c-84 -4 -86 -3 -86 73 0 36 4 65 9 65 5 0 37 -30 72 -67z m-1451
-1150 c0 -727 1 -798 17 -815 15 -17 49 -18 653 -18 l638 0 7 -162 c4 -90 5
-179 3 -198 l-3 -35 -742 -3 -743 -2 0 1015 0 1015 85 0 85 0 0 -797z"/>
<path d="M2025 2699 c-41 -25 -46 -58 -15 -89 17 -17 33 -20 99 -20 74 0 81 2
100 26 26 33 26 36 2 65 -16 20 -29 24 -92 26 -45 2 -82 -1 -94 -8z"/>
<path d="M2023 2460 c-44 -18 -37 -91 11 -104 11 -3 125 -6 251 -6 256 0 275
4 275 60 0 56 -18 60 -280 59 -129 0 -245 -4 -257 -9z"/>
<path d="M1347 2212 c-22 -24 -21 -55 1 -75 17 -15 73 -17 603 -17 442 0 588
3 597 12 17 17 15 64 -4 82 -14 14 -82 16 -598 16 -552 0 -584 -1 -599 -18z"/>
<path d="M1347 1972 c-22 -24 -21 -55 1 -75 17 -15 73 -17 600 -17 632 0 612
-2 612 55 0 57 20 55 -614 55 -552 0 -584 -1 -599 -18z"/>
<path d="M1346 1734 c-21 -21 -20 -57 2 -77 17 -15 73 -17 600 -17 514 0 582
2 596 16 19 18 21 65 4 82 -9 9 -156 12 -599 12 -521 0 -589 -2 -603 -16z"/>
<path d="M1363 1510 c-43 -17 -41 -84 4 -101 14 -5 259 -9 586 -9 626 0 611
-2 605 63 -6 57 1 57 -613 56 -308 0 -570 -4 -582 -9z"/>
<path d="M1352 1264 c-22 -15 -29 -48 -14 -71 19 -30 70 -33 615 -33 605 0
599 0 605 57 6 65 22 63 -613 63 -500 0 -573 -2 -593 -16z"/>
</g>
</svg>
